<?xml version="1.0" encoding="UTF-8"?>
<svg width="251px" height="26px" viewBox="0 0 251 26" version="1.1" xmlns="http://www.w3.org/2000/svg" xmlns:xlink="http://www.w3.org/1999/xlink">
    <title>Group 21</title>
    <g id="Page-1" stroke="none" stroke-width="1" fill="none" fill-rule="evenodd">
        <g id="Footer-con-sponsors-desplegados" transform="translate(-754.000000, -613.000000)" fill="#FEFEFE">
            <g id="Group-21" transform="translate(754.000000, 613.000000)">
                <path d="M110.720757,1.42518752 C110.809263,1.19085218 111.087695,1 111.343226,1 L119.862872,1 C120.116681,1 120.392358,1.19119057 120.481897,1.42687948 L128.97227,24.5734589 C129.062326,24.8094862 128.925951,25 128.665771,25 L121.124168,25 C120.873631,25 120.601397,24.8044104 120.527527,24.5653375 L119.886118,22.5072472 C119.813625,22.2664824 119.543975,22.06937 119.293438,22.06937 L111.70672,22.06937 C111.453084,22.06937 111.179473,22.2664824 111.109047,22.5072472 L110.463504,24.5653375 C110.394284,24.8044104 110.122911,25 109.870652,25 L102.330082,25 C102.073346,25 101.939726,24.8094862 102.026338,24.5734589 L110.720757,1.42518752 Z M115.694138,9.21797981 C115.620957,8.97958378 115.50094,8.97958378 115.425176,9.21459591 L113.529185,15.2369297 C113.453422,15.4753257 113.601506,15.6700694 113.857553,15.6700694 L117.209243,15.6700694 C117.464429,15.6700694 117.610619,15.4753257 117.538815,15.2355761 L115.694138,9.21797981 Z" id="Fill-1"></path>
                <path d="M205.031658,0 C196.284849,0 192,5.89353484 192,12.5826157 C192,17.9146682 194.980712,25 204.895485,25 C214.398271,25 218,18.2466531 218,12.3187867 C218,6.75622197 214.600535,0 205.031658,0 M204.960709,17.2150139 C201.218991,17.2150139 200.096996,14.5430684 200.096996,12.5317102 C200.096996,10.0079149 201.712683,7.78600083 205.011709,7.78600083 C208.621418,7.78600083 209.900229,10.3322893 209.900229,12.4314214 C209.900229,14.6656813 208.54301,17.2150139 204.960709,17.2150139" id="Fill-3"></path>
                <path d="M163,24.5483485 C163,24.7978965 162.776005,25 162.507943,25 L155.490046,25 C155.217412,25 155,24.7978965 155,24.5483485 L155,1.45519716 C155,1.20564916 155.217412,1 155.490046,1 L162.507943,1 C162.776005,1 163,1.20564916 163,1.45519716 L163,24.5483485 Z" id="Fill-5"></path>
                <path d="M183.232538,1 C182.980914,1 182.771026,1.20548032 182.771026,1.45502832 L182.771026,13.5371698 C182.771026,13.7857047 182.659787,13.81846 182.519575,13.6069014 L174.54004,1.38158219 C174.404657,1.17204967 174.081288,1 173.827077,1 L166.45927,1 C166.208508,1 166,1.20548032 166,1.45502832 L166,24.5483485 C166,24.7978965 166.208508,25 166.45927,25 L172.761943,25 C173.018396,25 173.226732,24.7978965 173.226732,24.5483485 L173.226732,12.4255162 C173.226732,12.1741109 173.340385,12.1433818 173.475769,12.3562911 L181.488071,24.6199374 C181.628112,24.8286257 181.943892,25 182.205174,25 L189.54349,25 C189.793561,25 190,24.7978965 190,24.5483485 L190,1.45502832 C190,1.20548032 189.793561,1 189.54349,1 L183.232538,1 Z" id="Fill-7"></path>
                <path d="M33.7204102,1.42518752 C33.8090986,1.19085218 34.0896296,1 34.3424347,1 L42.8604859,1 C43.1155297,1 43.3943386,1.19119057 43.4819938,1.42687948 L51.97473,24.5734589 C52.0592854,24.8094862 51.9253056,25 51.6675064,25 L44.1270946,25 C43.8744617,25 43.6042633,24.8044104 43.5305572,24.5653375 L42.8864897,22.5072472 C42.813128,22.2664824 42.548957,22.06937 42.2909855,22.06937 L34.7051102,22.06937 C34.4510996,22.06937 34.1800402,22.2664824 34.1073673,22.5072472 L33.4684661,24.5653375 C33.3935545,24.8044104 33.124906,25 32.866418,25 L25.329967,25 C25.0737177,25 24.9409434,24.8094862 25.0253265,24.5734589 L33.7204102,1.42518752 Z M38.6950567,9.21797981 C38.6199729,8.97958378 38.4990811,8.97958378 38.4234807,9.21459591 L36.5284756,15.2369297 C36.4520141,15.4753257 36.6049371,15.6700694 36.85757,15.6700694 L40.2068933,15.6700694 C40.4657258,15.6700694 40.6139991,15.4753257 40.5413262,15.2355761 L38.6950567,9.21797981 Z" id="Fill-9"></path>
                <path d="M70.143768,16.8184195 C73.4908299,15.3679127 74.857331,12.0302962 74.857331,9.14362233 C74.857331,5.51836752 72.4504782,1.08924379 66.0415208,1.00506108 L66.0415208,1 L59.9667724,1 L59.9667724,1.02142526 L53,1.02142526 L53,25 L61.2161547,25 L61.2161547,17.6315671 L62.2261549,17.6315671 L66.7913903,24.9740198 L75,24.9740198 L70.143768,16.8184195 Z M63.2589616,11.4585624 L61.1664263,11.4585624 L61.1664263,7.37258017 L63.2311823,7.37258017 C64.2123744,7.37258017 65.9743018,7.42319101 65.9743018,9.42805528 C65.9743018,11.4091324 64.1883676,11.4585624 63.2589616,11.4585624 L63.2589616,11.4585624 Z" id="Fill-11"></path>
                <path d="M147.14235,16.8184195 C150.48747,15.3679127 151.855141,12.0302962 151.855141,9.14362233 C151.855141,5.51836752 149.446373,1.08924379 143.042936,1.00506108 L143.042936,1 L136.963501,1 L136.963501,1.02142526 L130,1.02142526 L130,25 L138.2158,25 L138.2158,17.6315671 L139.228953,17.6315671 L143.791743,24.9740198 L152,24.9740198 L147.14235,16.8184195 Z M140.255649,11.4585624 L138.166256,11.4585624 L138.166256,7.37258017 L140.233192,7.37258017 C141.214459,7.37258017 142.977106,7.42319101 142.977106,9.42805528 C142.977106,11.4091324 141.189088,11.4585624 140.255649,11.4585624 L140.255649,11.4585624 Z" id="Fill-13"></path>
                <path d="M97.9153462,12.1693753 L97.9153462,11.9691242 C100.092282,11.2728044 100.844315,9.11633502 100.844315,6.92882844 C100.844315,1.15994838 95.9354417,0 91.1202023,0 L78.619167,0 L78.4770602,0 C78.2153397,0 78,0.213402445 78,0.475026478 L78,24.5263763 C78,24.784844 78.2153397,25 78.4770602,25 L82.8750463,25 L92.897147,25 C97.2550293,25 102,23.2440328 102,18.105365 C102,15.1191336 100.615898,13.1303 97.9153462,12.1693753 L97.9153462,12.1693753 Z M87.1455722,6.17464281 L87.8482596,6.17464281 C89.3287853,6.17464281 91.2169743,6.03436183 91.2169743,8.0072385 C91.2169743,9.83685322 89.5486585,9.97976447 88.0745843,9.97976447 L87.1455722,9.97976447 L87.1455722,6.17464281 Z M88.0745843,19.2695219 L87.1455722,19.2695219 L87.1455722,15.4670305 L87.8482596,15.4670305 C89.3287853,15.4670305 91.5486149,15.3248206 91.5486149,17.2987494 C91.5486149,19.1301176 89.5486585,19.2695219 88.0745843,19.2695219 L88.0745843,19.2695219 Z" id="Fill-15"></path>
                <path d="M14.0296815,11.6429983 L14.0296815,16.5641128 L17.6401134,16.5641128 C16.7685043,17.763131 15.3305053,18.618932 13.1769752,18.618932 C8.97882274,18.618932 7.71476405,15.4849619 7.71476405,13.1274561 C7.71476405,10.1673367 9.53081874,7.56423217 13.2388861,7.56423217 C15.4952543,7.56423217 16.9427914,8.48988391 17.7814507,9.73822886 L25.421991,8.67684245 C24.6105586,4.43267662 21.058049,0 13.1244289,0 C4.31625146,0 0,6.12927363 0,13.0852007 C0,18.6299701 3.00588961,26 12.9869068,26 C20.2464432,26 23.9293647,21.950209 25.3481141,17.3017711 C25.9269902,15.5089353 25.967397,13.7585274 26,11.6429983 L14.0296815,11.6429983 Z" id="Fill-17"></path>
                <path d="M242.936188,24.479744 L242.936188,17.5065119 C242.936188,17.1907906 243.192198,16.9348191 243.507968,16.9348191 L250.428393,16.9348191 C250.742604,16.9348191 251,16.6776352 251,16.3632994 L251,8.64085707 C251,8.32513578 250.743989,8.06916427 250.42822,8.06916427 L243.507968,8.06916427 C243.192198,8.06916427 242.936188,7.81336594 242.936188,7.49764465 L242.936188,0.519390102 C242.936188,0.232591166 242.703388,0 242.416545,0 L234.588131,0 C234.300769,0 234.065371,0.235188982 234.065371,0.522507482 L234.065371,7.49764465 C234.065371,7.81336594 233.809534,8.06916427 233.493591,8.06916427 L226.571434,8.06916427 C226.255837,8.06916427 226,8.32513578 226,8.64085707 L226,16.3631262 C226,16.6776352 226.257223,16.9348191 226.571607,16.9348191 L233.493591,16.9348191 C233.809534,16.9348191 234.065371,17.1907906 234.065371,17.5065119 L234.065371,24.4766266 C234.065371,24.7644646 234.300942,25 234.588997,25 L242.415853,25 C242.703215,25 242.936188,24.7670625 242.936188,24.479744" id="Fill-19"></path>
            </g>
        </g>
    </g>
</svg>