<?xml version="1.0" encoding="UTF-8"?>
<svg width="95px" height="35px" viewBox="0 0 95 35" version="1.1" xmlns="http://www.w3.org/2000/svg" xmlns:xlink="http://www.w3.org/1999/xlink">
    <!-- Generator: Sketch 63.1 (92452) - https://sketch.com -->
    <title>Group 37</title>
    <desc>Created with Sketch.</desc>
    <defs>
        <path d="M6.799,0.994 L6.252,0.994 C5.704,2.297 4.946,4.695 3.093,8.649 L3.093,8.649 L0.987,13.148 L1.787,13.148 L2.586,13.148 C2.84,12.097 3.386,10.751 3.891,9.447 L3.891,9.447 L5.999,9.447 L8.105,9.447 L8.905,11.297 L9.789,13.148 L11.095,13.148 L12.401,13.148 C11.602,11.55 10.549,8.902 9.747,7.344 L9.747,7.344 C9.2,5.746 8.146,3.392 7.347,0.994 L7.347,0.994 L6.799,0.994 Z M6.083,4.148 L7.683,8.396 L6.083,8.396 L4.23,8.396 L6.083,4.148 Z" id="path-1"></path>
        <path d="M1.803,0.247 L0.497,0.247 C0.749,1.844 0.749,3.148 0.749,4.2 L0.749,4.2 C0.749,7.102 0.749,10.004 0.497,12.148 L0.497,12.148 L1.803,12.148 L3.109,12.148 C2.856,10.845 2.856,8.995 2.856,6.344 L2.856,6.344 C2.856,4.495 2.856,1.592 3.109,0.247 L3.109,0.247 L1.803,0.247 Z" id="path-3"></path>
        <path d="M2.911,0.542 L1.056,0.542 L1.056,5.292 C1.056,8.742 1.056,8.995 0.803,12.443 L0.803,12.443 L2.109,12.443 L3.163,12.443 L3.163,9.288 L3.163,6.892 L3.71,6.892 C4.762,8.196 5.817,9.794 6.616,11.141 L6.616,11.141 C6.87,11.685 7.165,12.19 7.417,12.443 L7.417,12.443 L8.723,12.443 L10.324,12.443 C9.27,11.141 8.723,10.34 7.417,8.49 L7.417,8.49 C7.165,8.237 6.87,7.438 6.616,7.187 L6.616,7.187 L6.364,6.344 C7.964,6.092 9.27,5.04 9.27,3.191 L9.27,3.191 C9.27,2.392 9.019,1.887 8.471,1.339 L8.471,1.339 C7.67,0.542 6.87,0.542 5.817,0.542 L5.817,0.542 L2.911,0.542 Z M3.458,1.045 L4.762,1.045 C5.311,1.045 5.817,1.045 6.364,1.592 L6.364,1.592 C6.911,2.14 7.165,2.644 7.165,3.444 L7.165,3.444 C7.165,4.495 6.616,5.84 4.762,5.84 L4.762,5.84 L3.458,5.84 L3.458,1.045 Z" id="path-5"></path>
        <path d="M9.422,0.204 L8.622,0.204 C8.074,2.307 6.22,7.354 5.967,7.86 L5.967,7.86 L5.715,8.909 L5.337,8.196 C4.536,5.798 3.484,2.392 2.935,0.247 L2.935,0.247 L1.63,0.247 L0.324,0.247 C1.125,2.097 1.63,3.695 2.178,4.999 L2.178,4.999 C2.978,7.396 3.484,8.7 4.031,10.803 L4.031,10.803 L4.577,12.107 L5.377,12.107 L5.925,12.107 C6.18,11.308 6.473,10.004 6.725,9.458 L6.725,9.458 C7.526,7.354 7.526,7.059 8.326,4.705 L8.326,4.705 L8.874,3.4 C9.126,3.947 9.422,4.705 9.675,5.502 L9.675,5.502 C9.928,6.05 10.729,8.657 10.98,9.205 L10.98,9.205 C11.232,10.004 11.232,10.256 12.034,12.359 L12.034,12.359 L12.834,12.359 L13.635,12.359 C14.434,10.256 14.434,9.962 15.236,7.354 L15.236,7.354 C16.288,4.705 16.835,3.106 17.89,0.499 L17.89,0.499 L17.088,0.499 L16.288,0.499 C15.74,2.896 15.236,3.947 14.982,5.251 L14.982,5.251 C14.182,7.649 14.182,7.902 13.677,9.205 L13.677,9.205 C13.129,7.607 12.623,6.303 12.076,4.705 L12.076,4.705 C11.275,3.653 10.223,0.204 10.223,0.204 L10.223,0.204 L9.422,0.204 Z" id="path-7"></path>
        <path d="M5.976,0.994 L5.426,0.994 C4.88,2.297 4.12,4.695 2.267,8.649 L2.267,8.649 L0.161,13.148 L0.962,13.148 L1.762,13.148 C2.015,12.097 2.562,10.751 3.068,9.447 L3.068,9.447 L5.173,9.447 L7.281,9.447 L8.08,11.297 L8.964,13.148 L10.271,13.148 L11.577,13.148 C10.776,11.55 9.723,8.902 8.922,7.344 L8.922,7.344 C8.375,5.746 7.322,3.392 6.521,0.994 L6.521,0.994 L5.976,0.994 Z M5.258,4.148 L6.86,8.396 L5.258,8.396 L3.404,8.396 L5.258,4.148 Z" id="path-9"></path>
        <path d="M10.537,0.247 L9.485,0.247 C8.179,2.896 7.884,3.695 6.578,6.05 L6.578,6.05 C4.978,3.4 4.473,2.097 3.419,0.247 L3.419,0.247 L2.114,0.247 L0.808,0.247 C1.607,1.844 3.207,4.2 3.967,5.798 L3.967,5.798 L5.02,7.649 L5.02,12.4 L6.073,12.4 L7.379,12.4 L7.379,8.447 L7.379,7.396 L7.126,7.396 C7.126,7.145 7.126,7.145 7.379,6.849 L7.379,6.849 C8.179,5.545 8.684,4.2 9.485,3.148 L9.485,3.148 C9.737,2.602 11.085,0.752 11.338,0.247 L11.338,0.247 L10.537,0.247 Z" id="path-11"></path>
        <path d="M1.348,4.444 C1.348,5.746 1.896,6.84 3.454,7.596 L3.454,7.596 C4.003,7.849 4.76,8.145 5.309,8.396 L5.309,8.396 C5.562,8.649 6.615,8.943 6.615,10.498 L6.615,10.498 C6.615,11.803 5.814,12.603 4.213,12.603 L4.213,12.603 C3.244,12.603 2.486,12.35 1.391,10.498 L1.391,10.498 C1.391,11.297 1.391,11.55 0.843,12.35 L0.843,12.35 C1.391,12.603 2.696,13.148 4.003,13.148 L4.003,13.148 C7.163,13.148 8.511,11.046 8.511,9.447 L8.511,9.447 C8.511,8.902 8.511,7.849 7.708,7.05 L7.708,7.05 C7.163,6.502 6.657,6.251 5.309,5.746 L5.309,5.746 C3.708,5.2 2.908,4.695 2.908,3.644 L2.908,3.644 C2.908,2.592 3.708,1.793 5.014,1.793 L5.014,1.793 C6.066,1.793 7.12,2.339 7.415,3.392 L7.415,3.392 L7.668,3.392 C7.921,2.592 7.921,2.592 8.215,1.793 L8.215,1.793 C7.415,1.542 6.615,0.994 5.309,0.994 L5.309,0.994 C2.149,0.994 1.348,2.844 1.348,4.444 L1.348,4.444 Z" id="path-13"></path>
        <path d="M0.525,10.585 C0.385,12.321 0.827,15.237 3.144,17.714 L3.144,17.714 C5.625,20.19 8.684,20.63 11.165,20.63 L11.165,20.63 L12.184,20.63 L18.743,25.721 C19.626,25.142 20.923,24.402 21.944,23.985 L21.944,23.985 L15.383,19.911 C19.324,18.454 21.944,14.958 21.944,10.006 L21.944,10.006 C21.944,3.155 16.704,0.099 11.304,0.099 L11.304,0.099 C5.462,0.099 0.525,3.295 0.525,10.585 L0.525,10.585 Z M4.327,10.885 C4.327,3.618 8.268,1.721 11.188,1.721 L11.188,1.721 C15.846,1.721 17.888,5.654 17.888,9.867 L17.888,9.867 C17.888,12.205 17.585,14.519 16.427,16.278 L16.427,16.278 C15.268,18.014 13.227,19.195 11.188,19.195 L11.188,19.195 C5.927,19.172 4.327,14.08 4.327,10.885 L4.327,10.885 Z" id="path-15"></path>
        <path d="M9.766,0.402 C9.464,0.402 9.186,0.402 8.746,0.262 L8.746,0.262 C8.026,2.6 6.405,6.373 3.507,12.921 L3.507,12.921 L0.145,20.352 C0.586,20.352 1.026,20.213 1.466,20.213 L1.466,20.213 C1.906,20.213 2.486,20.352 2.789,20.352 L2.789,20.352 C3.228,18.754 4.109,16.278 5.129,14.102 L5.129,14.102 C6.289,14.102 7.47,13.963 8.631,13.963 L8.631,13.963 C9.788,13.963 11.11,13.963 12.268,14.102 L12.268,14.102 L13.428,17.158 L14.588,20.19 C15.165,20.19 15.908,20.051 16.766,20.051 L16.766,20.051 C17.623,20.051 18.504,20.19 18.945,20.19 L18.945,20.19 C17.623,17.436 15.746,13.061 14.725,10.585 L14.725,10.585 C13.705,8.109 11.968,4.174 10.646,0.262 L10.646,0.262 C10.344,0.402 10.067,0.402 9.766,0.402 L9.766,0.402 Z M5.685,12.205 L8.606,5.076 L11.366,12.205 C10.484,12.205 9.627,12.344 8.746,12.344 L8.746,12.344 C7.725,12.344 6.705,12.205 5.685,12.205 L5.685,12.205 Z" id="path-17"></path>
        <path d="M8.505,0.724 C6.326,0.724 3.104,0.724 0.786,0.587 L0.786,0.587 C0.924,0.887 0.924,1.303 0.924,1.605 L0.924,1.605 C0.924,1.906 0.924,2.321 0.786,2.623 L0.786,2.623 C2.245,2.485 5.005,2.485 5.306,2.485 L5.306,2.485 L6.766,2.485 L6.766,5.677 L6.766,13.686 C6.766,15.861 6.628,18.061 6.464,20.236 L6.464,20.236 C7.486,20.097 7.926,20.097 8.365,20.097 L8.365,20.097 C8.667,20.097 9.687,20.236 10.405,20.236 L10.405,20.236 L10.405,16.301 L10.405,5.654 L10.405,2.46 C12.445,2.46 14.485,2.46 16.083,2.6 L16.083,2.6 C15.946,2.161 15.946,1.883 15.946,1.581 L15.946,1.581 C15.946,1.28 15.946,1.002 16.083,0.425 L16.083,0.425 C13.326,0.724 10.846,0.724 8.505,0.724 L8.505,0.724 Z" id="path-19"></path>
        <path d="M9.823,0.402 C9.522,0.402 9.244,0.402 8.803,0.262 L8.803,0.262 C8.085,2.6 6.462,6.373 3.566,12.921 L3.566,12.921 L0.203,20.352 C0.645,20.352 1.083,20.213 1.525,20.213 L1.525,20.213 C1.965,20.213 2.545,20.352 2.846,20.352 L2.846,20.352 C3.287,18.754 4.168,16.278 5.188,14.102 L5.188,14.102 C6.346,14.102 7.528,13.963 8.689,13.963 L8.689,13.963 C9.846,13.963 11.167,13.963 12.327,14.102 L12.327,14.102 L13.486,17.158 L14.645,20.19 C15.225,20.19 15.965,20.051 16.824,20.051 L16.824,20.051 C17.681,20.051 18.562,20.19 19.003,20.19 L19.003,20.19 C17.681,17.436 15.805,13.061 14.784,10.585 L14.784,10.585 C13.764,8.109 12.025,4.174 10.703,0.262 L10.703,0.262 C10.402,0.402 10.124,0.402 9.823,0.402 L9.823,0.402 Z M5.766,12.205 L8.689,5.076 L11.444,12.205 C10.565,12.205 9.707,12.344 8.826,12.344 L8.826,12.344 C7.807,12.344 6.787,12.205 5.766,12.205 L5.766,12.205 Z" id="path-21"></path>
        <path d="M3.983,0.54 C2.524,0.54 1.804,0.402 1.063,0.402 L1.063,0.402 C1.202,4.035 1.202,4.474 1.202,8.271 L1.202,8.271 C1.202,13.802 1.202,14.379 0.9,20.051 L0.9,20.051 C1.479,19.911 2.221,19.911 2.939,19.911 L2.939,19.911 C3.659,19.911 4.261,20.051 4.841,20.051 L4.841,20.051 C4.841,19.333 4.701,15.538 4.701,14.822 L4.701,14.822 L4.701,10.885 L5.419,10.885 C7.019,13.061 8.781,15.538 10.243,17.876 L10.243,17.876 C10.682,18.593 11.261,19.61 11.702,20.213 L11.702,20.213 C12.582,20.073 12.861,20.073 14.043,20.073 L14.043,20.073 C15.062,20.073 15.782,20.213 16.663,20.213 L16.663,20.213 C14.924,17.876 14.043,16.857 11.842,13.802 L11.842,13.802 C11.401,13.223 10.821,12.205 10.381,11.626 L10.381,11.626 L9.685,10.447 C12.304,10.006 14.645,8.271 14.645,5.054 L14.645,5.054 C14.645,3.895 14.206,2.716 13.323,1.858 L13.323,1.858 C12.167,0.703 10.705,0.402 8.803,0.402 L8.803,0.402 C8.087,0.402 4.863,0.54 3.983,0.54 L3.983,0.54 Z M4.701,9.427 L4.701,1.998 L4.863,1.998 C5.303,1.998 6.325,1.858 6.904,1.858 L6.904,1.858 C7.923,1.858 8.803,1.998 9.523,2.576 L9.523,2.576 C10.543,3.295 10.682,4.313 10.682,5.633 L10.682,5.633 C10.682,7.53 9.662,9.565 6.74,9.565 L6.74,9.565 C6.023,9.565 5.282,9.565 4.701,9.427 L4.701,9.427 Z" id="path-23"></path>
    </defs>
    <g id="Page-1" stroke="none" stroke-width="1" fill="none" fill-rule="evenodd">
        <g id="Group-37">
            <g id="Group-3" transform="translate(22.000000, 21.399800)">
                <mask id="mask-2" fill="white">
                    <use xlink:href="#path-1"></use>
                </mask>
                <g id="Clip-2"></g>
                <polygon id="Fill-1" fill="#FEFEFE" mask="url(#mask-2)" points="-6.356 20.49 19.744 20.49 19.744 -6.349 -6.356 -6.349"></polygon>
            </g>
            <g id="Group-6" transform="translate(35.000000, 22.399800)">
                <mask id="mask-4" fill="white">
                    <use xlink:href="#path-3"></use>
                </mask>
                <g id="Clip-5"></g>
                <polygon id="Fill-4" fill="#FEFEFE" mask="url(#mask-4)" points="-6.845 19.491 10.452 19.491 10.452 -7.096 -6.845 -7.096"></polygon>
            </g>
            <g id="Group-9" transform="translate(40.000000, 22.399800)">
                <mask id="mask-6" fill="white">
                    <use xlink:href="#path-5"></use>
                </mask>
                <g id="Clip-8"></g>
                <polygon id="Fill-7" fill="#FEFEFE" mask="url(#mask-6)" points="-6.539 19.786 17.667 19.786 17.667 -6.801 -6.539 -6.801"></polygon>
            </g>
            <g id="Group-12" transform="translate(50.000000, 22.399800)">
                <mask id="mask-8" fill="white">
                    <use xlink:href="#path-7"></use>
                </mask>
                <g id="Clip-11"></g>
                <polygon id="Fill-10" fill="#FEFEFE" mask="url(#mask-8)" points="-7.019 19.702 25.232 19.702 25.232 -7.139 -7.019 -7.139"></polygon>
            </g>
            <g id="Group-15" transform="translate(66.000000, 21.399800)">
                <mask id="mask-10" fill="white">
                    <use xlink:href="#path-9"></use>
                </mask>
                <g id="Clip-14"></g>
                <polygon id="Fill-13" fill="#FEFEFE" mask="url(#mask-10)" points="-7.182 20.49 18.919 20.49 18.919 -6.349 -7.182 -6.349"></polygon>
            </g>
            <g id="Group-18" transform="translate(75.000000, 22.399800)">
                <mask id="mask-12" fill="white">
                    <use xlink:href="#path-11"></use>
                </mask>
                <g id="Clip-17"></g>
                <polygon id="Fill-16" fill="#FEFEFE" mask="url(#mask-12)" points="-6.535 19.743 18.68 19.743 18.68 -7.096 -6.535 -7.096"></polygon>
            </g>
            <g id="Group-21" transform="translate(86.000000, 21.399800)">
                <mask id="mask-14" fill="white">
                    <use xlink:href="#path-13"></use>
                </mask>
                <g id="Clip-20"></g>
                <polygon id="Fill-19" fill="#FEFEFE" mask="url(#mask-14)" points="-6.5 20.49 15.853 20.49 15.853 -6.349 -6.5 -6.349"></polygon>
            </g>
            <g id="Group-24" transform="translate(0.000000, 0.399800)">
                <mask id="mask-16" fill="white">
                    <use xlink:href="#path-15"></use>
                </mask>
                <g id="Clip-23"></g>
                <polygon id="Fill-22" fill="#FEFEFE" mask="url(#mask-16)" points="-6.841 33.064 29.287 33.064 29.287 -7.244 -6.841 -7.244"></polygon>
            </g>
            <g id="Group-27" transform="translate(24.000000, 0.399800)">
                <mask id="mask-18" fill="white">
                    <use xlink:href="#path-17"></use>
                </mask>
                <g id="Clip-26"></g>
                <polygon id="Fill-25" fill="#FEFEFE" mask="url(#mask-18)" points="-7.197 27.694 26.288 27.694 26.288 -7.081 -7.197 -7.081"></polygon>
            </g>
            <g id="Group-30" transform="translate(41.000000, 0.399800)">
                <mask id="mask-20" fill="white">
                    <use xlink:href="#path-19"></use>
                </mask>
                <g id="Clip-29"></g>
                <polygon id="Fill-28" fill="#FEFEFE" mask="url(#mask-20)" points="-6.557 27.579 23.426 27.579 23.426 -6.918 -6.557 -6.918"></polygon>
            </g>
            <g id="Group-33" transform="translate(56.000000, 0.399800)">
                <mask id="mask-22" fill="white">
                    <use xlink:href="#path-21"></use>
                </mask>
                <g id="Clip-32"></g>
                <polygon id="Fill-31" fill="#FEFEFE" mask="url(#mask-22)" points="-7.14 27.694 26.346 27.694 26.346 -7.081 -7.14 -7.081"></polygon>
            </g>
            <g id="Group-36" transform="translate(77.000000, 0.399800)">
                <mask id="mask-24" fill="white">
                    <use xlink:href="#path-23"></use>
                </mask>
                <g id="Clip-35"></g>
                <polygon id="Fill-34" fill="#FEFEFE" mask="url(#mask-24)" points="-6.444 27.556 24.005 27.556 24.005 -6.941 -6.444 -6.941"></polygon>
            </g>
        </g>
    </g>
</svg>